<svg version = "1.1" width="1200" height="100" xmlns="http://www.w3.org/2000/svg">
<rect fill="none" stroke="black" width="80" height="80" y="10" x="10"/>
<text x="50" y="50" text-anchor="middle" dominant-baseline="middle">0</text>
<rect fill="none" stroke="black" width="80" height="80" y="10" x="110"/>
<text x="132" y="50" text-anchor="middle" dominant-baseline="middle">0</text>
<text x="168" y="50" text-anchor="middle" dominant-baseline="middle">1</text>
<rect fill="none" stroke="black" width="80" height="80" y="10" x="210"/>
<text x="232" y="65.479996" text-anchor="middle" dominant-baseline="middle">0</text>
<text x="268" y="65.479996" text-anchor="middle" dominant-baseline="middle">1</text>
<text x="250" y="34.52" text-anchor="middle" dominant-baseline="middle">2</text>
<rect fill="none" stroke="black" width="80" height="80" y="10" x="310"/>
<text x="332" y="68" text-anchor="middle" dominant-baseline="middle">0</text>
<text x="368" y="68" text-anchor="middle" dominant-baseline="middle">1</text>
<text x="332" y="32" text-anchor="middle" dominant-baseline="middle">2</text>
<text x="368" y="32" text-anchor="middle" dominant-baseline="middle">3</text>
<rect fill="none" stroke="black" width="80" height="80" y="10" x="410"/>
<text x="432" y="68" text-anchor="middle" dominant-baseline="middle">0</text>
<text x="468" y="68" text-anchor="middle" dominant-baseline="middle">1</text>
<text x="450" y="50" text-anchor="middle" dominant-baseline="middle">2</text>
<text x="432" y="32" text-anchor="middle" dominant-baseline="middle">3</text>
<text x="468" y="32" text-anchor="middle" dominant-baseline="middle">4</text>
<rect fill="none" stroke="black" width="80" height="80" y="10" x="510"/>
<text x="538" y="74" text-anchor="middle" dominant-baseline="middle">0</text>
<text x="562" y="74" text-anchor="middle" dominant-baseline="middle">1</text>
<text x="538" y="50" text-anchor="middle" dominant-baseline="middle">2</text>
<text x="562" y="50" text-anchor="middle" dominant-baseline="middle">3</text>
<text x="538" y="26" text-anchor="middle" dominant-baseline="middle">4</text>
<text x="562" y="26" text-anchor="middle" dominant-baseline="middle">5</text>
<rect fill="none" stroke="black" width="80" height="80" y="10" x="610"/>
<text x="638" y="74" text-anchor="middle" dominant-baseline="middle">0</text>
<text x="662" y="74" text-anchor="middle" dominant-baseline="middle">1</text>
<text x="626" y="50" text-anchor="middle" dominant-baseline="middle">2</text>
<text x="650" y="50" text-anchor="middle" dominant-baseline="middle">3</text>
<text x="674" y="50" text-anchor="middle" dominant-baseline="middle">4</text>
<text x="638" y="26" text-anchor="middle" dominant-baseline="middle">5</text>
<text x="662" y="26" text-anchor="middle" dominant-baseline="middle">6</text>
<rect fill="none" stroke="black" width="80" height="80" y="10" x="710"/>
<text x="726" y="74" text-anchor="middle" dominant-baseline="middle">0</text>
<text x="750" y="74" text-anchor="middle" dominant-baseline="middle">1</text>
<text x="774" y="74" text-anchor="middle" dominant-baseline="middle">2</text>
<text x="726" y="50" text-anchor="middle" dominant-baseline="middle">3</text>
<text x="750" y="50" text-anchor="middle" dominant-baseline="middle">4</text>
<text x="774" y="50" text-anchor="middle" dominant-baseline="middle">5</text>
<text x="738" y="26" text-anchor="middle" dominant-baseline="middle">6</text>
<text x="762" y="26" text-anchor="middle" dominant-baseline="middle">7</text>
<rect fill="none" stroke="black" width="80" height="80" y="10" x="810"/>
<text x="826" y="74" text-anchor="middle" dominant-baseline="middle">0</text>
<text x="850" y="74" text-anchor="middle" dominant-baseline="middle">1</text>
<text x="874" y="74" text-anchor="middle" dominant-baseline="middle">2</text>
<text x="826" y="50" text-anchor="middle" dominant-baseline="middle">3</text>
<text x="850" y="50" text-anchor="middle" dominant-baseline="middle">4</text>
<text x="874" y="50" text-anchor="middle" dominant-baseline="middle">5</text>
<text x="826" y="26" text-anchor="middle" dominant-baseline="middle">6</text>
<text x="850" y="26" text-anchor="middle" dominant-baseline="middle">7</text>
<text x="874" y="26" text-anchor="middle" dominant-baseline="middle">8</text>
<rect fill="none" stroke="black" width="80" height="80" y="10" x="910"/>
<text x="926" y="74" text-anchor="middle" dominant-baseline="middle">0</text>
<text x="950" y="74" text-anchor="middle" dominant-baseline="middle">1</text>
<text x="974" y="74" text-anchor="middle" dominant-baseline="middle">2</text>
<text x="926" y="50" text-anchor="middle" dominant-baseline="middle">3</text>
<text x="942.2" y="50" text-anchor="middle" dominant-baseline="middle">4</text>
<text x="957.8" y="50" text-anchor="middle" dominant-baseline="middle">5</text>
<text x="974" y="50" text-anchor="middle" dominant-baseline="middle">6</text>
<text x="926" y="26" text-anchor="middle" dominant-baseline="middle">7</text>
<text x="950" y="26" text-anchor="middle" dominant-baseline="middle">8</text>
<text x="974" y="26" text-anchor="middle" dominant-baseline="middle">9</text>
<rect fill="none" stroke="black" width="80" height="80" y="10" x="1010"/>
<text x="1026" y="74" text-anchor="middle" dominant-baseline="middle">0</text>
<text x="1042.2" y="74" text-anchor="middle" dominant-baseline="middle">1</text>
<text x="1057.8" y="74" text-anchor="middle" dominant-baseline="middle">2</text>
<text x="1074" y="74" text-anchor="middle" dominant-baseline="middle">3</text>
<text x="1026" y="50" text-anchor="middle" dominant-baseline="middle">4</text>
<text x="1042.2" y="50" text-anchor="middle" dominant-baseline="middle">5</text>
<text x="1057.8" y="50" text-anchor="middle" dominant-baseline="middle">6</text>
<text x="1074" y="50" text-anchor="middle" dominant-baseline="middle">7</text>
<text x="1026" y="26" text-anchor="middle" dominant-baseline="middle">8</text>
<text x="1050" y="26" text-anchor="middle" dominant-baseline="middle">9</text>
<text x="1074" y="26" text-anchor="middle" dominant-baseline="middle">10</text>
<rect fill="none" stroke="black" width="80" height="80" y="10" x="1110"/>
<text x="1126" y="74" text-anchor="middle" dominant-baseline="middle">0</text>
<text x="1142.2" y="74" text-anchor="middle" dominant-baseline="middle">1</text>
<text x="1157.8" y="74" text-anchor="middle" dominant-baseline="middle">2</text>
<text x="1174" y="74" text-anchor="middle" dominant-baseline="middle">3</text>
<text x="1126" y="50" text-anchor="middle" dominant-baseline="middle">4</text>
<text x="1142.2" y="50" text-anchor="middle" dominant-baseline="middle">5</text>
<text x="1157.8" y="50" text-anchor="middle" dominant-baseline="middle">6</text>
<text x="1174" y="50" text-anchor="middle" dominant-baseline="middle">7</text>
<text x="1126" y="26" text-anchor="middle" dominant-baseline="middle">8</text>
<text x="1142.2" y="26" text-anchor="middle" dominant-baseline="middle">9</text>
<text x="1157.8" y="26" text-anchor="middle" dominant-baseline="middle">10</text>
<text x="1174" y="26" text-anchor="middle" dominant-baseline="middle">11</text>
</svg>
