<?xml version="1.0" encoding="UTF-8" standalone="no"?>
<!DOCTYPE svg PUBLIC "-//W3C//DTD SVG 1.1//EN"
 "http://www.w3.org/Graphics/SVG/1.1/DTD/svg11.dtd">
<!-- Generated by graphviz version 2.40.1 (20161225.0304)
 -->
<!-- Title: %3 Pages: 1 -->
<svg width="906pt" height="1719pt"
 viewBox="0.00 0.00 906.00 1719.00" xmlns="http://www.w3.org/2000/svg" xmlns:xlink="http://www.w3.org/1999/xlink">
<g id="graph0" class="graph" transform="scale(1 1) rotate(0) translate(4 1715)">
<title>%3</title>
<polygon fill="#ffffff" stroke="transparent" points="-4,4 -4,-1715 902,-1715 902,4 -4,4"/>
<!-- (below main) -->
<g id="node1" class="node">
<title>(below main)</title>
<polygon fill="#ff0000" stroke="#ff0000" points="637.5,-1505 566.5,-1505 566.5,-1442 637.5,-1442 637.5,-1505"/>
<text text-anchor="middle" x="602" y="-1493" font-family="Arial" font-size="10.00" fill="#ffffff">libc&#45;2.27.so</text>
<text text-anchor="middle" x="602" y="-1482" font-family="Arial" font-size="10.00" fill="#ffffff">(below main)</text>
<text text-anchor="middle" x="602" y="-1471" font-family="Arial" font-size="10.00" fill="#ffffff">99.99%</text>
<text text-anchor="middle" x="602" y="-1460" font-family="Arial" font-size="10.00" fill="#ffffff">(0.00%)</text>
<text text-anchor="middle" x="602" y="-1449" font-family="Arial" font-size="10.00" fill="#ffffff">1×</text>
</g>
<!-- main -->
<g id="node2" class="node">
<title>main</title>
<polygon fill="#ff0000" stroke="#ff0000" points="628,-1402 576,-1402 576,-1339 628,-1339 628,-1402"/>
<text text-anchor="middle" x="602" y="-1390" font-family="Arial" font-size="10.00" fill="#ffffff">rust_ext</text>
<text text-anchor="middle" x="602" y="-1379" font-family="Arial" font-size="10.00" fill="#ffffff">main</text>
<text text-anchor="middle" x="602" y="-1368" font-family="Arial" font-size="10.00" fill="#ffffff">99.99%</text>
<text text-anchor="middle" x="602" y="-1357" font-family="Arial" font-size="10.00" fill="#ffffff">(0.00%)</text>
<text text-anchor="middle" x="602" y="-1346" font-family="Arial" font-size="10.00" fill="#ffffff">1×</text>
</g>
<!-- (below main)&#45;&gt;main -->
<g id="edge1" class="edge">
<title>(below main)&#45;&gt;main</title>
<path fill="none" stroke="#ff0000" stroke-width="4" d="M602,-1441.7562C602,-1432.5536 602,-1422.3591 602,-1412.6267"/>
<polygon fill="#ff0000" stroke="#ff0000" stroke-width="4" points="605.5001,-1412.3163 602,-1402.3163 598.5001,-1412.3164 605.5001,-1412.3163"/>
<text text-anchor="middle" x="619" y="-1425" font-family="Arial" font-size="10.00" fill="#ff0000">99.99%</text>
<text text-anchor="middle" x="619" y="-1414" font-family="Arial" font-size="10.00" fill="#ff0000">1×</text>
</g>
<!-- std::sys_common::backtrace::__rust_begin_short_backtrace -->
<g id="node9" class="node">
<title>std::sys_common::backtrace::__rust_begin_short_backtrace</title>
<polygon fill="#ff0000" stroke="#ff0000" points="742,-1299 462,-1299 462,-1236 742,-1236 742,-1299"/>
<text text-anchor="middle" x="602" y="-1287" font-family="Arial" font-size="10.00" fill="#ffffff">rust_ext</text>
<text text-anchor="middle" x="602" y="-1276" font-family="Arial" font-size="10.00" fill="#ffffff">std::sys_common::backtrace::__rust_begin_short_backtrace</text>
<text text-anchor="middle" x="602" y="-1265" font-family="Arial" font-size="10.00" fill="#ffffff">99.99%</text>
<text text-anchor="middle" x="602" y="-1254" font-family="Arial" font-size="10.00" fill="#ffffff">(0.00%)</text>
<text text-anchor="middle" x="602" y="-1243" font-family="Arial" font-size="10.00" fill="#ffffff">1×</text>
</g>
<!-- main&#45;&gt;std::sys_common::backtrace::__rust_begin_short_backtrace -->
<g id="edge6" class="edge">
<title>main&#45;&gt;std::sys_common::backtrace::__rust_begin_short_backtrace</title>
<path fill="none" stroke="#ff0000" stroke-width="4" d="M602,-1338.7562C602,-1329.5536 602,-1319.3591 602,-1309.6267"/>
<polygon fill="#ff0000" stroke="#ff0000" stroke-width="4" points="605.5001,-1309.3163 602,-1299.3163 598.5001,-1309.3164 605.5001,-1309.3163"/>
<text text-anchor="middle" x="619" y="-1322" font-family="Arial" font-size="10.00" fill="#ff0000">99.99%</text>
<text text-anchor="middle" x="619" y="-1311" font-family="Arial" font-size="10.00" fill="#ff0000">1×</text>
</g>
<!-- 0x0000000000001090 -->
<g id="node3" class="node">
<title>0x0000000000001090</title>
<polygon fill="#ff0000" stroke="#ff0000" points="657.5,-1711 546.5,-1711 546.5,-1648 657.5,-1648 657.5,-1711"/>
<text text-anchor="middle" x="602" y="-1699" font-family="Arial" font-size="10.00" fill="#ffffff">ld&#45;2.27.so</text>
<text text-anchor="middle" x="602" y="-1688" font-family="Arial" font-size="10.00" fill="#ffffff">0x0000000000001090</text>
<text text-anchor="middle" x="602" y="-1677" font-family="Arial" font-size="10.00" fill="#ffffff">100.00%</text>
<text text-anchor="middle" x="602" y="-1666" font-family="Arial" font-size="10.00" fill="#ffffff">(0.00%)</text>
<text text-anchor="middle" x="602" y="-1655" font-family="Arial" font-size="10.00" fill="#ffffff">0×</text>
</g>
<!-- _start -->
<g id="node4" class="node">
<title>_start</title>
<polygon fill="#ff0000" stroke="#ff0000" points="628,-1608 576,-1608 576,-1545 628,-1545 628,-1608"/>
<text text-anchor="middle" x="602" y="-1596" font-family="Arial" font-size="10.00" fill="#ffffff">rust_ext</text>
<text text-anchor="middle" x="602" y="-1585" font-family="Arial" font-size="10.00" fill="#ffffff">_start</text>
<text text-anchor="middle" x="602" y="-1574" font-family="Arial" font-size="10.00" fill="#ffffff">99.99%</text>
<text text-anchor="middle" x="602" y="-1563" font-family="Arial" font-size="10.00" fill="#ffffff">(0.00%)</text>
<text text-anchor="middle" x="602" y="-1552" font-family="Arial" font-size="10.00" fill="#ffffff">1×</text>
</g>
<!-- 0x0000000000001090&#45;&gt;_start -->
<g id="edge2" class="edge">
<title>0x0000000000001090&#45;&gt;_start</title>
<path fill="none" stroke="#ff0000" stroke-width="4" d="M602,-1647.7562C602,-1638.5536 602,-1628.3591 602,-1618.6267"/>
<polygon fill="#ff0000" stroke="#ff0000" stroke-width="4" points="605.5001,-1618.3163 602,-1608.3163 598.5001,-1618.3164 605.5001,-1618.3163"/>
<text text-anchor="middle" x="619" y="-1631" font-family="Arial" font-size="10.00" fill="#ff0000">99.99%</text>
<text text-anchor="middle" x="619" y="-1620" font-family="Arial" font-size="10.00" fill="#ff0000">1×</text>
</g>
<!-- _start&#45;&gt;(below main) -->
<g id="edge5" class="edge">
<title>_start&#45;&gt;(below main)</title>
<path fill="none" stroke="#ff0000" stroke-width="4" d="M602,-1544.7562C602,-1535.5536 602,-1525.3591 602,-1515.6267"/>
<polygon fill="#ff0000" stroke="#ff0000" stroke-width="4" points="605.5001,-1515.3163 602,-1505.3163 598.5001,-1515.3164 605.5001,-1515.3163"/>
<text text-anchor="middle" x="619" y="-1528" font-family="Arial" font-size="10.00" fill="#ff0000">99.99%</text>
<text text-anchor="middle" x="619" y="-1517" font-family="Arial" font-size="10.00" fill="#ff0000">1×</text>
</g>
<!-- &lt;rust_ext::adem_algebra::AdemAlgebra as rust_ext::algebra::Algebra&gt;::multiply_basis_elements -->
<g id="node5" class="node">
<title>&lt;rust_ext::adem_algebra::AdemAlgebra as rust_ext::algebra::Algebra&gt;::multiply_basis_elements</title>
<polygon fill="#0ba166" stroke="#0ba166" points="591.5,-681 154.5,-681 154.5,-618 591.5,-618 591.5,-681"/>
<text text-anchor="middle" x="373" y="-669" font-family="Arial" font-size="10.00" fill="#ffffff">rust_ext</text>
<text text-anchor="middle" x="373" y="-658" font-family="Arial" font-size="10.00" fill="#ffffff">&lt;rust_ext::adem_algebra::AdemAlgebra as rust_ext::algebra::Algebra&gt;::multiply_basis_elements</text>
<text text-anchor="middle" x="373" y="-647" font-family="Arial" font-size="10.00" fill="#ffffff">34.81%</text>
<text text-anchor="middle" x="373" y="-636" font-family="Arial" font-size="10.00" fill="#ffffff">(1.32%)</text>
<text text-anchor="middle" x="373" y="-625" font-family="Arial" font-size="10.00" fill="#ffffff">271664×</text>
</g>
<!-- rust_ext::adem_algebra::AdemAlgebra::make_mono_admissible_2 -->
<g id="node6" class="node">
<title>rust_ext::adem_algebra::AdemAlgebra::make_mono_admissible_2</title>
<polygon fill="#0b9f6e" stroke="#0b9f6e" points="525.5,-578 220.5,-578 220.5,-515 525.5,-515 525.5,-578"/>
<text text-anchor="middle" x="373" y="-566" font-family="Arial" font-size="10.00" fill="#ffffff">rust_ext</text>
<text text-anchor="middle" x="373" y="-555" font-family="Arial" font-size="10.00" fill="#ffffff">rust_ext::adem_algebra::AdemAlgebra::make_mono_admissible_2</text>
<text text-anchor="middle" x="373" y="-544" font-family="Arial" font-size="10.00" fill="#ffffff">33.26%</text>
<text text-anchor="middle" x="373" y="-533" font-family="Arial" font-size="10.00" fill="#ffffff">(1.92%)</text>
<text text-anchor="middle" x="373" y="-522" font-family="Arial" font-size="10.00" fill="#ffffff">271664×</text>
</g>
<!-- &lt;rust_ext::adem_algebra::AdemAlgebra as rust_ext::algebra::Algebra&gt;::multiply_basis_elements&#45;&gt;rust_ext::adem_algebra::AdemAlgebra::make_mono_admissible_2 -->
<g id="edge3" class="edge">
<title>&lt;rust_ext::adem_algebra::AdemAlgebra as rust_ext::algebra::Algebra&gt;::multiply_basis_elements&#45;&gt;rust_ext::adem_algebra::AdemAlgebra::make_mono_admissible_2</title>
<path fill="none" stroke="#0b9f6e" stroke-width="1.33" d="M373,-617.7562C373,-607.183 373,-595.3004 373,-584.3138"/>
<polygon fill="#0b9f6e" stroke="#0b9f6e" stroke-width="1.33" points="375.0301,-584.1163 373,-578.3163 370.9701,-584.1164 375.0301,-584.1163"/>
<text text-anchor="middle" x="392" y="-601" font-family="Arial" font-size="10.00" fill="#0b9f6e">33.26%</text>
<text text-anchor="middle" x="392" y="-590" font-family="Arial" font-size="10.00" fill="#0b9f6e">271664×</text>
</g>
<!-- rust_ext::adem_algebra::AdemAlgebra::basis_element_to_index -->
<g id="node10" class="node">
<title>rust_ext::adem_algebra::AdemAlgebra::basis_element_to_index</title>
<polygon fill="#0d327d" stroke="#0d327d" points="491,-269 197,-269 197,-206 491,-206 491,-269"/>
<text text-anchor="middle" x="344" y="-257" font-family="Arial" font-size="10.00" fill="#ffffff">rust_ext</text>
<text text-anchor="middle" x="344" y="-246" font-family="Arial" font-size="10.00" fill="#ffffff">rust_ext::adem_algebra::AdemAlgebra::basis_element_to_index</text>
<text text-anchor="middle" x="344" y="-235" font-family="Arial" font-size="10.00" fill="#ffffff">8.30%</text>
<text text-anchor="middle" x="344" y="-224" font-family="Arial" font-size="10.00" fill="#ffffff">(0.43%)</text>
<text text-anchor="middle" x="344" y="-213" font-family="Arial" font-size="10.00" fill="#ffffff">1012239×</text>
</g>
<!-- rust_ext::adem_algebra::AdemAlgebra::make_mono_admissible_2&#45;&gt;rust_ext::adem_algebra::AdemAlgebra::basis_element_to_index -->
<g id="edge8" class="edge">
<title>rust_ext::adem_algebra::AdemAlgebra::make_mono_admissible_2&#45;&gt;rust_ext::adem_algebra::AdemAlgebra::basis_element_to_index</title>
<path fill="none" stroke="#0d0e73" stroke-width=".5" d="M448.3721,-514.8936C464.2066,-504.5864 478.8633,-491.4393 488,-475 508.3058,-438.4646 502.673,-418.8791 485,-381 464.2564,-336.5395 423.825,-297.6657 391.5569,-271.6339"/>
<polygon fill="#0d0e73" stroke="#0d0e73" stroke-width=".5" points="391.9585,-270.3862 388.4606,-269.155 390.4273,-272.2987 391.9585,-270.3862"/>
<text text-anchor="middle" x="511.5" y="-395" font-family="Arial" font-size="10.00" fill="#0d0e73">0.26%</text>
<text text-anchor="middle" x="511.5" y="-384" font-family="Arial" font-size="10.00" fill="#0d0e73">31517×</text>
</g>
<!-- rust_ext::adem_algebra::AdemAlgebra::make_mono_admissible_2&#39;2 -->
<g id="node12" class="node">
<title>rust_ext::adem_algebra::AdemAlgebra::make_mono_admissible_2&#39;2</title>
<polygon fill="#0c9293" stroke="#0c9293" points="427.5,-475 116.5,-475 116.5,-412 427.5,-412 427.5,-475"/>
<text text-anchor="middle" x="272" y="-463" font-family="Arial" font-size="10.00" fill="#ffffff">rust_ext</text>
<text text-anchor="middle" x="272" y="-452" font-family="Arial" font-size="10.00" fill="#ffffff">rust_ext::adem_algebra::AdemAlgebra::make_mono_admissible_2&#39;2</text>
<text text-anchor="middle" x="272" y="-441" font-family="Arial" font-size="10.00" fill="#ffffff">24.72%</text>
<text text-anchor="middle" x="272" y="-430" font-family="Arial" font-size="10.00" fill="#ffffff">(4.88%)</text>
<text text-anchor="middle" x="272" y="-419" font-family="Arial" font-size="10.00" fill="#ffffff">698201×</text>
</g>
<!-- rust_ext::adem_algebra::AdemAlgebra::make_mono_admissible_2&#45;&gt;rust_ext::adem_algebra::AdemAlgebra::make_mono_admissible_2&#39;2 -->
<g id="edge9" class="edge">
<title>rust_ext::adem_algebra::AdemAlgebra::make_mono_admissible_2&#45;&gt;rust_ext::adem_algebra::AdemAlgebra::make_mono_admissible_2&#39;2</title>
<path fill="none" stroke="#0c9293" stroke-width=".99" d="M341.8725,-514.7562C330.7367,-503.3998 318.1196,-490.5328 306.7008,-478.888"/>
<polygon fill="#0c9293" stroke="#0c9293" stroke-width=".99" points="307.9488,-477.6611 303.1985,-475.3163 305.4498,-480.1116 307.9488,-477.6611"/>
<text text-anchor="middle" x="351" y="-498" font-family="Arial" font-size="10.00" fill="#0c9293">24.72%</text>
<text text-anchor="middle" x="351" y="-487" font-family="Arial" font-size="10.00" fill="#0c9293">202760×</text>
</g>
<!-- rust_ext::adem_algebra::AdemAlgebra::tail_of_basis_element_to_index -->
<g id="node13" class="node">
<title>rust_ext::adem_algebra::AdemAlgebra::tail_of_basis_element_to_index</title>
<polygon fill="#0d2379" stroke="#0d2379" points="326,-372 0,-372 0,-309 326,-309 326,-372"/>
<text text-anchor="middle" x="163" y="-360" font-family="Arial" font-size="10.00" fill="#ffffff">rust_ext</text>
<text text-anchor="middle" x="163" y="-349" font-family="Arial" font-size="10.00" fill="#ffffff">rust_ext::adem_algebra::AdemAlgebra::tail_of_basis_element_to_index</text>
<text text-anchor="middle" x="163" y="-338" font-family="Arial" font-size="10.00" fill="#ffffff">5.21%</text>
<text text-anchor="middle" x="163" y="-327" font-family="Arial" font-size="10.00" fill="#ffffff">(0.90%)</text>
<text text-anchor="middle" x="163" y="-316" font-family="Arial" font-size="10.00" fill="#ffffff">535418×</text>
</g>
<!-- rust_ext::adem_algebra::AdemAlgebra::make_mono_admissible_2&#45;&gt;rust_ext::adem_algebra::AdemAlgebra::tail_of_basis_element_to_index -->
<g id="edge10" class="edge">
<title>rust_ext::adem_algebra::AdemAlgebra::make_mono_admissible_2&#45;&gt;rust_ext::adem_algebra::AdemAlgebra::tail_of_basis_element_to_index</title>
<path fill="none" stroke="#0d1776" stroke-width=".5" d="M220.1529,-527.6145C156.6375,-516.334 93.2172,-499.3544 74,-475 56.6555,-453.0189 61.8966,-437.2489 74,-412 81.0093,-397.3779 92.6282,-384.7993 105.1946,-374.4514"/>
<polygon fill="#0d1776" stroke="#0d1776" stroke-width=".5" points="106.1039,-375.292 108.0605,-372.142 104.5665,-373.3843 106.1039,-375.292"/>
<text text-anchor="middle" x="93" y="-446.5" font-family="Arial" font-size="10.00" fill="#0d1776">2.38%</text>
<text text-anchor="middle" x="93" y="-435.5" font-family="Arial" font-size="10.00" fill="#0d1776">240147×</text>
</g>
<!-- rust_ext::fp_vector::FpVector::get_entry -->
<g id="node14" class="node">
<title>rust_ext::fp_vector::FpVector::get_entry</title>
<polygon fill="#0aad33" stroke="#0aad33" points="702,-372 512,-372 512,-309 702,-309 702,-372"/>
<text text-anchor="middle" x="607" y="-360" font-family="Arial" font-size="10.00" fill="#ffffff">rust_ext</text>
<text text-anchor="middle" x="607" y="-349" font-family="Arial" font-size="10.00" fill="#ffffff">rust_ext::fp_vector::FpVector::get_entry</text>
<text text-anchor="middle" x="607" y="-338" font-family="Arial" font-size="10.00" fill="#ffffff">43.73%</text>
<text text-anchor="middle" x="607" y="-327" font-family="Arial" font-size="10.00" fill="#ffffff">(43.73%)</text>
<text text-anchor="middle" x="607" y="-316" font-family="Arial" font-size="10.00" fill="#ffffff">40176716×</text>
</g>
<!-- rust_ext::adem_algebra::AdemAlgebra::make_mono_admissible_2&#45;&gt;rust_ext::fp_vector::FpVector::get_entry -->
<g id="edge11" class="edge">
<title>rust_ext::adem_algebra::AdemAlgebra::make_mono_admissible_2&#45;&gt;rust_ext::fp_vector::FpVector::get_entry</title>
<path fill="none" stroke="#0d1b77" stroke-width=".5" d="M492.6649,-514.8715C496.9829,-512.1541 501.117,-509.2036 505,-506 541.5009,-475.8854 529.9113,-452.1219 555,-412 562.7271,-399.6428 571.876,-386.6158 580.3288,-375.116"/>
<polygon fill="#0d1b77" stroke="#0d1b77" stroke-width=".5" points="581.3686,-375.7701 582.4616,-372.2266 579.3974,-374.3151 581.3686,-375.7701"/>
<text text-anchor="middle" x="576.5" y="-446.5" font-family="Arial" font-size="10.00" fill="#0d1b77">3.40%</text>
<text text-anchor="middle" x="576.5" y="-435.5" font-family="Arial" font-size="10.00" fill="#0d1b77">3121741×</text>
</g>
<!-- &lt;rust_ext::free_module::FreeModule as rust_ext::module::Module&gt;::act_on_basis -->
<g id="node7" class="node">
<title>&lt;rust_ext::free_module::FreeModule as rust_ext::module::Module&gt;::act_on_basis</title>
<polygon fill="#0ba261" stroke="#0ba261" points="582.5,-784 211.5,-784 211.5,-721 582.5,-721 582.5,-784"/>
<text text-anchor="middle" x="397" y="-772" font-family="Arial" font-size="10.00" fill="#ffffff">rust_ext</text>
<text text-anchor="middle" x="397" y="-761" font-family="Arial" font-size="10.00" fill="#ffffff">&lt;rust_ext::free_module::FreeModule as rust_ext::module::Module&gt;::act_on_basis</text>
<text text-anchor="middle" x="397" y="-750" font-family="Arial" font-size="10.00" fill="#ffffff">35.85%</text>
<text text-anchor="middle" x="397" y="-739" font-family="Arial" font-size="10.00" fill="#ffffff">(0.64%)</text>
<text text-anchor="middle" x="397" y="-728" font-family="Arial" font-size="10.00" fill="#ffffff">271664×</text>
</g>
<!-- &lt;rust_ext::free_module::FreeModule as rust_ext::module::Module&gt;::act_on_basis&#45;&gt;&lt;rust_ext::adem_algebra::AdemAlgebra as rust_ext::algebra::Algebra&gt;::multiply_basis_elements -->
<g id="edge4" class="edge">
<title>&lt;rust_ext::free_module::FreeModule as rust_ext::module::Module&gt;::act_on_basis&#45;&gt;&lt;rust_ext::adem_algebra::AdemAlgebra as rust_ext::algebra::Algebra&gt;::multiply_basis_elements</title>
<path fill="none" stroke="#0ba166" stroke-width="1.39" d="M389.6034,-720.7562C387.1397,-710.183 384.371,-698.3004 381.811,-687.3138"/>
<polygon fill="#0ba166" stroke="#0ba166" stroke-width="1.39" points="383.7636,-686.5938 380.4135,-681.3163 379.7414,-687.531 383.7636,-686.5938"/>
<text text-anchor="middle" x="407" y="-704" font-family="Arial" font-size="10.00" fill="#0ba166">34.81%</text>
<text text-anchor="middle" x="407" y="-693" font-family="Arial" font-size="10.00" fill="#0ba166">271664×</text>
</g>
<!-- &lt;std::collections::hash::map::DefaultHasher as core::hash::Hasher&gt;::write -->
<g id="node8" class="node">
<title>&lt;std::collections::hash::map::DefaultHasher as core::hash::Hasher&gt;::write</title>
<polygon fill="#0d1e78" stroke="#0d1e78" points="513.5,-63 174.5,-63 174.5,0 513.5,0 513.5,-63"/>
<text text-anchor="middle" x="344" y="-51" font-family="Arial" font-size="10.00" fill="#ffffff">rust_ext</text>
<text text-anchor="middle" x="344" y="-40" font-family="Arial" font-size="10.00" fill="#ffffff">&lt;std::collections::hash::map::DefaultHasher as core::hash::Hasher&gt;::write</text>
<text text-anchor="middle" x="344" y="-29" font-family="Arial" font-size="10.00" fill="#ffffff">3.96%</text>
<text text-anchor="middle" x="344" y="-18" font-family="Arial" font-size="10.00" fill="#ffffff">(3.96%)</text>
<text text-anchor="middle" x="344" y="-7" font-family="Arial" font-size="10.00" fill="#ffffff">3042890×</text>
</g>
<!-- std::rt::lang_start::{{closure}} -->
<g id="node22" class="node">
<title>std::rt::lang_start::{{closure}}</title>
<polygon fill="#ff0000" stroke="#ff0000" points="672,-1196 532,-1196 532,-1133 672,-1133 672,-1196"/>
<text text-anchor="middle" x="602" y="-1184" font-family="Arial" font-size="10.00" fill="#ffffff">rust_ext</text>
<text text-anchor="middle" x="602" y="-1173" font-family="Arial" font-size="10.00" fill="#ffffff">std::rt::lang_start::{{closure}}</text>
<text text-anchor="middle" x="602" y="-1162" font-family="Arial" font-size="10.00" fill="#ffffff">99.99%</text>
<text text-anchor="middle" x="602" y="-1151" font-family="Arial" font-size="10.00" fill="#ffffff">(0.00%)</text>
<text text-anchor="middle" x="602" y="-1140" font-family="Arial" font-size="10.00" fill="#ffffff">1×</text>
</g>
<!-- std::sys_common::backtrace::__rust_begin_short_backtrace&#45;&gt;std::rt::lang_start::{{closure}} -->
<g id="edge29" class="edge">
<title>std::sys_common::backtrace::__rust_begin_short_backtrace&#45;&gt;std::rt::lang_start::{{closure}}</title>
<path fill="none" stroke="#ff0000" stroke-width="4" d="M602,-1235.7562C602,-1226.5536 602,-1216.3591 602,-1206.6267"/>
<polygon fill="#ff0000" stroke="#ff0000" stroke-width="4" points="605.5001,-1206.3163 602,-1196.3163 598.5001,-1206.3164 605.5001,-1206.3163"/>
<text text-anchor="middle" x="619" y="-1219" font-family="Arial" font-size="10.00" fill="#ff0000">99.99%</text>
<text text-anchor="middle" x="619" y="-1208" font-family="Arial" font-size="10.00" fill="#ff0000">1×</text>
</g>
<!-- std::collections::hash::map::HashMap&lt;K,V,S&gt;::get -->
<g id="node11" class="node">
<title>std::collections::hash::map::HashMap&lt;K,V,S&gt;::get</title>
<polygon fill="#0d307d" stroke="#0d307d" points="463.5,-166 224.5,-166 224.5,-103 463.5,-103 463.5,-166"/>
<text text-anchor="middle" x="344" y="-154" font-family="Arial" font-size="10.00" fill="#ffffff">rust_ext</text>
<text text-anchor="middle" x="344" y="-143" font-family="Arial" font-size="10.00" fill="#ffffff">std::collections::hash::map::HashMap&lt;K,V,S&gt;::get</text>
<text text-anchor="middle" x="344" y="-132" font-family="Arial" font-size="10.00" fill="#ffffff">7.87%</text>
<text text-anchor="middle" x="344" y="-121" font-family="Arial" font-size="10.00" fill="#ffffff">(3.41%)</text>
<text text-anchor="middle" x="344" y="-110" font-family="Arial" font-size="10.00" fill="#ffffff">1012239×</text>
</g>
<!-- rust_ext::adem_algebra::AdemAlgebra::basis_element_to_index&#45;&gt;std::collections::hash::map::HashMap&lt;K,V,S&gt;::get -->
<g id="edge7" class="edge">
<title>rust_ext::adem_algebra::AdemAlgebra::basis_element_to_index&#45;&gt;std::collections::hash::map::HashMap&lt;K,V,S&gt;::get</title>
<path fill="none" stroke="#0d307d" stroke-width=".5" d="M344,-205.7562C344,-194.3998 344,-181.5328 344,-169.888"/>
<polygon fill="#0d307d" stroke="#0d307d" stroke-width=".5" points="345.2251,-169.8163 344,-166.3163 342.7751,-169.8164 345.2251,-169.8163"/>
<text text-anchor="middle" x="365.5" y="-189" font-family="Arial" font-size="10.00" fill="#0d307d">7.87%</text>
<text text-anchor="middle" x="365.5" y="-178" font-family="Arial" font-size="10.00" fill="#0d307d">1012239×</text>
</g>
<!-- std::collections::hash::map::HashMap&lt;K,V,S&gt;::get&#45;&gt;&lt;std::collections::hash::map::DefaultHasher as core::hash::Hasher&gt;::write -->
<g id="edge27" class="edge">
<title>std::collections::hash::map::HashMap&lt;K,V,S&gt;::get&#45;&gt;&lt;std::collections::hash::map::DefaultHasher as core::hash::Hasher&gt;::write</title>
<path fill="none" stroke="#0d1e78" stroke-width=".5" d="M344,-102.7562C344,-91.3998 344,-78.5328 344,-66.888"/>
<polygon fill="#0d1e78" stroke="#0d1e78" stroke-width=".5" points="345.2251,-66.8163 344,-63.3163 342.7751,-66.8164 345.2251,-66.8163"/>
<text text-anchor="middle" x="365.5" y="-86" font-family="Arial" font-size="10.00" fill="#0d1e78">3.95%</text>
<text text-anchor="middle" x="365.5" y="-75" font-family="Arial" font-size="10.00" fill="#0d1e78">3036717×</text>
</g>
<!-- rust_ext::adem_algebra::AdemAlgebra::make_mono_admissible_2&#39;2&#45;&gt;rust_ext::adem_algebra::AdemAlgebra::basis_element_to_index -->
<g id="edge12" class="edge">
<title>rust_ext::adem_algebra::AdemAlgebra::make_mono_admissible_2&#39;2&#45;&gt;rust_ext::adem_algebra::AdemAlgebra::basis_element_to_index</title>
<path fill="none" stroke="#0d1c77" stroke-width=".5" d="M304.1598,-411.9501C314.1024,-400.3421 324.0067,-386.4722 330,-372 343.1527,-340.2395 345.8395,-300.809 345.73,-272.8732"/>
<polygon fill="#0d1c77" stroke="#0d1c77" stroke-width=".5" points="346.9534,-272.6712 345.699,-269.1817 344.5035,-272.6919 346.9534,-272.6712"/>
<text text-anchor="middle" x="364" y="-343.5" font-family="Arial" font-size="10.00" fill="#0d1c77">3.65%</text>
<text text-anchor="middle" x="364" y="-332.5" font-family="Arial" font-size="10.00" fill="#0d1c77">437028×</text>
</g>
<!-- rust_ext::adem_algebra::AdemAlgebra::make_mono_admissible_2&#39;2&#45;&gt;rust_ext::adem_algebra::AdemAlgebra::make_mono_admissible_2&#39;2 -->
<g id="edge13" class="edge">
<title>rust_ext::adem_algebra::AdemAlgebra::make_mono_admissible_2&#39;2&#45;&gt;rust_ext::adem_algebra::AdemAlgebra::make_mono_admissible_2&#39;2</title>
<path fill="none" stroke="#0c9293" stroke-width=".99" d="M427.6162,-448.8375C433.2603,-447.4276 436.5,-445.6484 436.5,-443.5 436.5,-442.0901 435.1048,-440.8392 432.5504,-439.7473"/>
<polygon fill="#0c9293" stroke="#0c9293" stroke-width=".99" points="432.9119,-438.0254 427.6162,-438.1625 431.8415,-441.3578 432.9119,-438.0254"/>
<text text-anchor="middle" x="455.5" y="-441" font-family="Arial" font-size="10.00" fill="#0c9293">495441×</text>
</g>
<!-- rust_ext::adem_algebra::AdemAlgebra::make_mono_admissible_2&#39;2&#45;&gt;rust_ext::adem_algebra::AdemAlgebra::tail_of_basis_element_to_index -->
<g id="edge14" class="edge">
<title>rust_ext::adem_algebra::AdemAlgebra::make_mono_admissible_2&#39;2&#45;&gt;rust_ext::adem_algebra::AdemAlgebra::tail_of_basis_element_to_index</title>
<path fill="none" stroke="#0d1776" stroke-width=".5" d="M238.407,-411.7562C226.0783,-400.1061 212.0672,-386.8663 199.496,-374.987"/>
<polygon fill="#0d1776" stroke="#0d1776" stroke-width=".5" points="200.055,-373.8299 196.6697,-372.3163 198.3723,-375.6106 200.055,-373.8299"/>
<text text-anchor="middle" x="247" y="-395" font-family="Arial" font-size="10.00" fill="#0d1776">2.52%</text>
<text text-anchor="middle" x="247" y="-384" font-family="Arial" font-size="10.00" fill="#0d1776">261173×</text>
</g>
<!-- rust_ext::adem_algebra::AdemAlgebra::make_mono_admissible_2&#39;2&#45;&gt;rust_ext::fp_vector::FpVector::get_entry -->
<g id="edge15" class="edge">
<title>rust_ext::adem_algebra::AdemAlgebra::make_mono_admissible_2&#39;2&#45;&gt;rust_ext::fp_vector::FpVector::get_entry</title>
<path fill="none" stroke="#0d4482" stroke-width=".5" d="M349.8378,-411.9C377.4251,-401.3135 408.854,-389.9409 438,-381 460.5437,-374.0844 485.0742,-367.6166 508.2772,-361.9677"/>
<polygon fill="#0d4482" stroke="#0d4482" stroke-width=".5" points="508.5777,-363.1554 511.6906,-361.1403 508.0005,-360.7744 508.5777,-363.1554"/>
<text text-anchor="middle" x="462.5" y="-395" font-family="Arial" font-size="10.00" fill="#0d4482">11.74%</text>
<text text-anchor="middle" x="462.5" y="-384" font-family="Arial" font-size="10.00" fill="#0d4482">10788392×</text>
</g>
<!-- rust_ext::adem_algebra::AdemAlgebra::tail_of_basis_element_to_index&#45;&gt;rust_ext::adem_algebra::AdemAlgebra::basis_element_to_index -->
<g id="edge16" class="edge">
<title>rust_ext::adem_algebra::AdemAlgebra::tail_of_basis_element_to_index&#45;&gt;rust_ext::adem_algebra::AdemAlgebra::basis_element_to_index</title>
<path fill="none" stroke="#0d1f78" stroke-width=".5" d="M218.7829,-308.7562C239.8704,-296.7561 263.922,-283.0693 285.2717,-270.92"/>
<polygon fill="#0d1f78" stroke="#0d1f78" stroke-width=".5" points="285.9652,-271.9348 288.4013,-269.139 284.7535,-269.8054 285.9652,-271.9348"/>
<text text-anchor="middle" x="289" y="-292" font-family="Arial" font-size="10.00" fill="#0d1f78">4.31%</text>
<text text-anchor="middle" x="289" y="-281" font-family="Arial" font-size="10.00" fill="#0d1f78">535418×</text>
</g>
<!-- rust_ext::fp_vector::FpVector::add -->
<g id="node15" class="node">
<title>rust_ext::fp_vector::FpVector::add</title>
<polygon fill="#0c8290" stroke="#0c8290" points="834.5,-887 669.5,-887 669.5,-824 834.5,-824 834.5,-887"/>
<text text-anchor="middle" x="752" y="-875" font-family="Arial" font-size="10.00" fill="#ffffff">rust_ext</text>
<text text-anchor="middle" x="752" y="-864" font-family="Arial" font-size="10.00" fill="#ffffff">rust_ext::fp_vector::FpVector::add</text>
<text text-anchor="middle" x="752" y="-853" font-family="Arial" font-size="10.00" fill="#ffffff">22.42%</text>
<text text-anchor="middle" x="752" y="-842" font-family="Arial" font-size="10.00" fill="#ffffff">(13.69%)</text>
<text text-anchor="middle" x="752" y="-831" font-family="Arial" font-size="10.00" fill="#ffffff">1360716×</text>
</g>
<!-- rust_ext::fp_vector::FpVector::get_limb_mask -->
<g id="node16" class="node">
<title>rust_ext::fp_vector::FpVector::get_limb_mask</title>
<polygon fill="#0d347e" stroke="#0d347e" points="834.5,-784 619.5,-784 619.5,-721 834.5,-721 834.5,-784"/>
<text text-anchor="middle" x="727" y="-772" font-family="Arial" font-size="10.00" fill="#ffffff">rust_ext</text>
<text text-anchor="middle" x="727" y="-761" font-family="Arial" font-size="10.00" fill="#ffffff">rust_ext::fp_vector::FpVector::get_limb_mask</text>
<text text-anchor="middle" x="727" y="-750" font-family="Arial" font-size="10.00" fill="#ffffff">8.59%</text>
<text text-anchor="middle" x="727" y="-739" font-family="Arial" font-size="10.00" fill="#ffffff">(6.43%)</text>
<text text-anchor="middle" x="727" y="-728" font-family="Arial" font-size="10.00" fill="#ffffff">2896827×</text>
</g>
<!-- rust_ext::fp_vector::FpVector::add&#45;&gt;rust_ext::fp_vector::FpVector::get_limb_mask -->
<g id="edge17" class="edge">
<title>rust_ext::fp_vector::FpVector::add&#45;&gt;rust_ext::fp_vector::FpVector::get_limb_mask</title>
<path fill="none" stroke="#0d317d" stroke-width=".5" d="M744.2952,-823.7562C741.5388,-812.3998 738.4157,-799.5328 735.5893,-787.888"/>
<polygon fill="#0d317d" stroke="#0d317d" stroke-width=".5" points="736.7385,-787.4286 734.7224,-784.3163 734.3576,-788.0065 736.7385,-787.4286"/>
<text text-anchor="middle" x="762.5" y="-807" font-family="Arial" font-size="10.00" fill="#0d317d">8.04%</text>
<text text-anchor="middle" x="762.5" y="-796" font-family="Arial" font-size="10.00" fill="#0d317d">2714113×</text>
</g>
<!-- rust_ext::fp_vector::FpVector::get_offset -->
<g id="node17" class="node">
<title>rust_ext::fp_vector::FpVector::get_offset</title>
<polygon fill="#0d1676" stroke="#0d1676" points="823.5,-681 630.5,-681 630.5,-618 823.5,-618 823.5,-681"/>
<text text-anchor="middle" x="727" y="-669" font-family="Arial" font-size="10.00" fill="#ffffff">rust_ext</text>
<text text-anchor="middle" x="727" y="-658" font-family="Arial" font-size="10.00" fill="#ffffff">rust_ext::fp_vector::FpVector::get_offset</text>
<text text-anchor="middle" x="727" y="-647" font-family="Arial" font-size="10.00" fill="#ffffff">2.21%</text>
<text text-anchor="middle" x="727" y="-636" font-family="Arial" font-size="10.00" fill="#ffffff">(2.21%)</text>
<text text-anchor="middle" x="727" y="-625" font-family="Arial" font-size="10.00" fill="#ffffff">2961031×</text>
</g>
<!-- rust_ext::fp_vector::FpVector::get_limb_mask&#45;&gt;rust_ext::fp_vector::FpVector::get_offset -->
<g id="edge18" class="edge">
<title>rust_ext::fp_vector::FpVector::get_limb_mask&#45;&gt;rust_ext::fp_vector::FpVector::get_offset</title>
<path fill="none" stroke="#0d1676" stroke-width=".5" d="M727,-720.7562C727,-709.3998 727,-696.5328 727,-684.888"/>
<polygon fill="#0d1676" stroke="#0d1676" stroke-width=".5" points="728.2251,-684.8163 727,-681.3163 725.7751,-684.8164 728.2251,-684.8163"/>
<text text-anchor="middle" x="748.5" y="-704" font-family="Arial" font-size="10.00" fill="#0d1676">2.16%</text>
<text text-anchor="middle" x="748.5" y="-693" font-family="Arial" font-size="10.00" fill="#0d1676">2896827×</text>
</g>
<!-- rust_ext::free_module_homomorphism::FreeModuleHomomorphism::get_matrix_with_table -->
<g id="node18" class="node">
<title>rust_ext::free_module_homomorphism::FreeModuleHomomorphism::get_matrix_with_table</title>
<polygon fill="#0ba555" stroke="#0ba555" points="656.5,-990 247.5,-990 247.5,-927 656.5,-927 656.5,-990"/>
<text text-anchor="middle" x="452" y="-978" font-family="Arial" font-size="10.00" fill="#ffffff">rust_ext</text>
<text text-anchor="middle" x="452" y="-967" font-family="Arial" font-size="10.00" fill="#ffffff">rust_ext::free_module_homomorphism::FreeModuleHomomorphism::get_matrix_with_table</text>
<text text-anchor="middle" x="452" y="-956" font-family="Arial" font-size="10.00" fill="#ffffff">37.96%</text>
<text text-anchor="middle" x="452" y="-945" font-family="Arial" font-size="10.00" fill="#ffffff">(0.18%)</text>
<text text-anchor="middle" x="452" y="-934" font-family="Arial" font-size="10.00" fill="#ffffff">5000×</text>
</g>
<!-- rust_ext::module::Module::act -->
<g id="node19" class="node">
<title>rust_ext::module::Module::act</title>
<polygon fill="#0ba557" stroke="#0ba557" points="525,-887 379,-887 379,-824 525,-824 525,-887"/>
<text text-anchor="middle" x="452" y="-875" font-family="Arial" font-size="10.00" fill="#ffffff">rust_ext</text>
<text text-anchor="middle" x="452" y="-864" font-family="Arial" font-size="10.00" fill="#ffffff">rust_ext::module::Module::act</text>
<text text-anchor="middle" x="452" y="-853" font-family="Arial" font-size="10.00" fill="#ffffff">37.65%</text>
<text text-anchor="middle" x="452" y="-842" font-family="Arial" font-size="10.00" fill="#ffffff">(0.35%)</text>
<text text-anchor="middle" x="452" y="-831" font-family="Arial" font-size="10.00" fill="#ffffff">125844×</text>
</g>
<!-- rust_ext::free_module_homomorphism::FreeModuleHomomorphism::get_matrix_with_table&#45;&gt;rust_ext::module::Module::act -->
<g id="edge19" class="edge">
<title>rust_ext::free_module_homomorphism::FreeModuleHomomorphism::get_matrix_with_table&#45;&gt;rust_ext::module::Module::act</title>
<path fill="none" stroke="#0ba557" stroke-width="1.51" d="M452,-926.7562C452,-916.2809 452,-904.5203 452,-893.6192"/>
<polygon fill="#0ba557" stroke="#0ba557" stroke-width="1.51" points="454.1351,-893.4163 452,-887.3163 449.8651,-893.4164 454.1351,-893.4163"/>
<text text-anchor="middle" x="471" y="-910" font-family="Arial" font-size="10.00" fill="#0ba557">37.65%</text>
<text text-anchor="middle" x="471" y="-899" font-family="Arial" font-size="10.00" fill="#0ba557">125844×</text>
</g>
<!-- rust_ext::module::Module::act&#45;&gt;&lt;rust_ext::free_module::FreeModule as rust_ext::module::Module&gt;::act_on_basis -->
<g id="edge25" class="edge">
<title>rust_ext::module::Module::act&#45;&gt;&lt;rust_ext::free_module::FreeModule as rust_ext::module::Module&gt;::act_on_basis</title>
<path fill="none" stroke="#0ba261" stroke-width="1.43" d="M435.0494,-823.7562C429.299,-812.9872 422.8232,-800.8599 416.8664,-789.7044"/>
<polygon fill="#0ba261" stroke="#0ba261" stroke-width="1.43" points="418.668,-788.6199 413.9893,-784.3163 414.9631,-790.5982 418.668,-788.6199"/>
<text text-anchor="middle" x="449" y="-807" font-family="Arial" font-size="10.00" fill="#0ba261">35.85%</text>
<text text-anchor="middle" x="449" y="-796" font-family="Arial" font-size="10.00" fill="#0ba261">271664×</text>
</g>
<!-- rust_ext::module::Module::act&#45;&gt;rust_ext::fp_vector::FpVector::get_entry -->
<g id="edge26" class="edge">
<title>rust_ext::module::Module::act&#45;&gt;rust_ext::fp_vector::FpVector::get_entry</title>
<path fill="none" stroke="#0d1375" stroke-width=".5" d="M525.3631,-835.9888C564.6296,-820.6334 605,-794.6073 605,-752.5 605,-752.5 605,-752.5 605,-443.5 605,-421.0316 605.4816,-395.8114 605.9722,-375.9507"/>
<polygon fill="#0d1375" stroke="#0d1375" stroke-width=".5" points="607.2067,-375.5822 606.0703,-372.0525 604.7575,-375.5205 607.2067,-375.5822"/>
<text text-anchor="middle" x="626.5" y="-601" font-family="Arial" font-size="10.00" fill="#0d1375">1.44%</text>
<text text-anchor="middle" x="626.5" y="-590" font-family="Arial" font-size="10.00" fill="#0d1375">1323326×</text>
</g>
<!-- rust_ext::main -->
<g id="node20" class="node">
<title>rust_ext::main</title>
<polygon fill="#ff0000" stroke="#ff0000" points="641.5,-1093 562.5,-1093 562.5,-1030 641.5,-1030 641.5,-1093"/>
<text text-anchor="middle" x="602" y="-1081" font-family="Arial" font-size="10.00" fill="#ffffff">rust_ext</text>
<text text-anchor="middle" x="602" y="-1070" font-family="Arial" font-size="10.00" fill="#ffffff">rust_ext::main</text>
<text text-anchor="middle" x="602" y="-1059" font-family="Arial" font-size="10.00" fill="#ffffff">99.99%</text>
<text text-anchor="middle" x="602" y="-1048" font-family="Arial" font-size="10.00" fill="#ffffff">(0.16%)</text>
<text text-anchor="middle" x="602" y="-1037" font-family="Arial" font-size="10.00" fill="#ffffff">1×</text>
</g>
<!-- rust_ext::main&#45;&gt;rust_ext::free_module_homomorphism::FreeModuleHomomorphism::get_matrix_with_table -->
<g id="edge20" class="edge">
<title>rust_ext::main&#45;&gt;rust_ext::free_module_homomorphism::FreeModuleHomomorphism::get_matrix_with_table</title>
<path fill="none" stroke="#0ba555" stroke-width="1.52" d="M562.1966,-1034.1683C544.1876,-1021.8022 522.6772,-1007.0316 503.4609,-993.8365"/>
<polygon fill="#0ba555" stroke="#0ba555" stroke-width="1.52" points="504.446,-991.8806 498.1066,-990.1599 501.9893,-995.4584 504.446,-991.8806"/>
<text text-anchor="middle" x="558" y="-1013" font-family="Arial" font-size="10.00" fill="#0ba555">37.96%</text>
<text text-anchor="middle" x="558" y="-1002" font-family="Arial" font-size="10.00" fill="#0ba555">5000×</text>
</g>
<!-- rust_ext::matrix::Matrix::row_reduce -->
<g id="node21" class="node">
<title>rust_ext::matrix::Matrix::row_reduce</title>
<polygon fill="#45c108" stroke="#45c108" points="838.5,-990 665.5,-990 665.5,-927 838.5,-927 838.5,-990"/>
<text text-anchor="middle" x="752" y="-978" font-family="Arial" font-size="10.00" fill="#ffffff">rust_ext</text>
<text text-anchor="middle" x="752" y="-967" font-family="Arial" font-size="10.00" fill="#ffffff">rust_ext::matrix::Matrix::row_reduce</text>
<text text-anchor="middle" x="752" y="-956" font-family="Arial" font-size="10.00" fill="#ffffff">58.24%</text>
<text text-anchor="middle" x="752" y="-945" font-family="Arial" font-size="10.00" fill="#ffffff">(8.89%)</text>
<text text-anchor="middle" x="752" y="-934" font-family="Arial" font-size="10.00" fill="#ffffff">2500×</text>
</g>
<!-- rust_ext::main&#45;&gt;rust_ext::matrix::Matrix::row_reduce -->
<g id="edge21" class="edge">
<title>rust_ext::main&#45;&gt;rust_ext::matrix::Matrix::row_reduce</title>
<path fill="none" stroke="#45c108" stroke-width="2.33" d="M641.8034,-1034.1683C659.5045,-1022.0135 680.5885,-1007.5359 699.5516,-994.5145"/>
<polygon fill="#45c108" stroke="#45c108" stroke-width="2.33" points="701.134,-996.6548 705.8934,-990.1599 698.1225,-992.2692 701.134,-996.6548"/>
<text text-anchor="middle" x="707" y="-1013" font-family="Arial" font-size="10.00" fill="#45c108">58.24%</text>
<text text-anchor="middle" x="707" y="-1002" font-family="Arial" font-size="10.00" fill="#45c108">2500×</text>
</g>
<!-- rust_ext::matrix::Matrix::row_reduce&#45;&gt;rust_ext::fp_vector::FpVector::get_entry -->
<g id="edge23" class="edge">
<title>rust_ext::matrix::Matrix::row_reduce&#45;&gt;rust_ext::fp_vector::FpVector::get_entry</title>
<path fill="none" stroke="#0c968c" stroke-width="1.07" d="M805.324,-926.9135C827.8638,-909.2461 849,-884.8532 849,-855.5 849,-855.5 849,-855.5 849,-443.5 849,-410.9581 773.978,-382.723 707.4761,-364.087"/>
<polygon fill="#0c968c" stroke="#0c968c" stroke-width="1.07" points="707.7947,-362.2867 702.2974,-362.6501 706.8215,-365.7942 707.7947,-362.2867"/>
<text text-anchor="middle" x="873.5" y="-652.5" font-family="Arial" font-size="10.00" fill="#0c968c">26.85%</text>
<text text-anchor="middle" x="873.5" y="-641.5" font-family="Arial" font-size="10.00" fill="#0c968c">24666553×</text>
</g>
<!-- rust_ext::matrix::Matrix::row_reduce&#45;&gt;rust_ext::fp_vector::FpVector::add -->
<g id="edge22" class="edge">
<title>rust_ext::matrix::Matrix::row_reduce&#45;&gt;rust_ext::fp_vector::FpVector::add</title>
<path fill="none" stroke="#0c8090" stroke-width=".88" d="M752,-926.7562C752,-915.7914 752,-903.4184 752,-892.0969"/>
<polygon fill="#0c8090" stroke="#0c8090" stroke-width=".88" points="753.6451,-892.0163 752,-887.3163 750.3551,-892.0164 753.6451,-892.0163"/>
<text text-anchor="middle" x="773.5" y="-910" font-family="Arial" font-size="10.00" fill="#0c8090">22.09%</text>
<text text-anchor="middle" x="773.5" y="-899" font-family="Arial" font-size="10.00" fill="#0c8090">1327499×</text>
</g>
<!-- rust_ext::matrix::Matrix::row_reduce&#45;&gt;rust_ext::fp_vector::FpVector::get_limb_mask -->
<g id="edge24" class="edge">
<title>rust_ext::matrix::Matrix::row_reduce&#45;&gt;rust_ext::fp_vector::FpVector::get_limb_mask</title>
<path fill="none" stroke="#0d0e73" stroke-width=".5" d="M668.2899,-926.9384C651.8159,-916.7555 636.6588,-903.6521 627,-887 612.9513,-862.7795 614.1936,-848.8997 627,-824 634.6684,-809.0902 647.0473,-796.598 660.5235,-786.4438"/>
<polygon fill="#0d0e73" stroke="#0d0e73" stroke-width=".5" points="661.5062,-787.2415 663.5984,-784.1799 660.0536,-785.2686 661.5062,-787.2415"/>
<text text-anchor="middle" x="646" y="-858.5" font-family="Arial" font-size="10.00" fill="#0d0e73">0.37%</text>
<text text-anchor="middle" x="646" y="-847.5" font-family="Arial" font-size="10.00" fill="#0d0e73">125520×</text>
</g>
<!-- std::rt::lang_start::{{closure}}&#45;&gt;rust_ext::main -->
<g id="edge28" class="edge">
<title>std::rt::lang_start::{{closure}}&#45;&gt;rust_ext::main</title>
<path fill="none" stroke="#ff0000" stroke-width="4" d="M602,-1132.7562C602,-1123.5536 602,-1113.3591 602,-1103.6267"/>
<polygon fill="#ff0000" stroke="#ff0000" stroke-width="4" points="605.5001,-1103.3163 602,-1093.3163 598.5001,-1103.3164 605.5001,-1103.3163"/>
<text text-anchor="middle" x="619" y="-1116" font-family="Arial" font-size="10.00" fill="#ff0000">99.99%</text>
<text text-anchor="middle" x="619" y="-1105" font-family="Arial" font-size="10.00" fill="#ff0000">1×</text>
</g>
</g>
</svg>
