<svg version = "1.1" width="660" height="300" xmlns="http://www.w3.org/2000/svg">
<style>
circle {
    fill: black;
}
.structline {
    stroke: black;
    fill: none;
}
.d2 {
    stroke: blue;
}
.major-grid {
    stroke: black;
    opacity: 20%;
    shape-rendering: crispEdges;
    fill: none;
}
.grid {
    stroke: black;
    opacity: 10%;
    shape-rendering: crispEdges;
    fill: none;
}
.x-label {
 text-anchor: middle;
 dominant-baseline: text-before-edge;
}
.y-label {
 text-anchor: end;
 dominant-baseline: middle;
}
</style>
<line class="major-grid" x1="30" x2="30" y1="30" y2="270" />
<text class="x-label" x="30" y="273">0</text>
<line class="grid" x1="50" x2="50" y1="30" y2="270" />
<line class="grid" x1="70" x2="70" y1="30" y2="270" />
<line class="grid" x1="90" x2="90" y1="30" y2="270" />
<line class="major-grid" x1="110" x2="110" y1="30" y2="270" />
<text class="x-label" x="110" y="273">4</text>
<line class="grid" x1="130" x2="130" y1="30" y2="270" />
<line class="grid" x1="150" x2="150" y1="30" y2="270" />
<line class="grid" x1="170" x2="170" y1="30" y2="270" />
<line class="major-grid" x1="190" x2="190" y1="30" y2="270" />
<text class="x-label" x="190" y="273">8</text>
<line class="grid" x1="210" x2="210" y1="30" y2="270" />
<line class="grid" x1="230" x2="230" y1="30" y2="270" />
<line class="grid" x1="250" x2="250" y1="30" y2="270" />
<line class="major-grid" x1="270" x2="270" y1="30" y2="270" />
<text class="x-label" x="270" y="273">12</text>
<line class="grid" x1="290" x2="290" y1="30" y2="270" />
<line class="grid" x1="310" x2="310" y1="30" y2="270" />
<line class="grid" x1="330" x2="330" y1="30" y2="270" />
<line class="major-grid" x1="350" x2="350" y1="30" y2="270" />
<text class="x-label" x="350" y="273">16</text>
<line class="grid" x1="370" x2="370" y1="30" y2="270" />
<line class="grid" x1="390" x2="390" y1="30" y2="270" />
<line class="grid" x1="410" x2="410" y1="30" y2="270" />
<line class="major-grid" x1="430" x2="430" y1="30" y2="270" />
<text class="x-label" x="430" y="273">20</text>
<line class="grid" x1="450" x2="450" y1="30" y2="270" />
<line class="grid" x1="470" x2="470" y1="30" y2="270" />
<line class="grid" x1="490" x2="490" y1="30" y2="270" />
<line class="major-grid" x1="510" x2="510" y1="30" y2="270" />
<text class="x-label" x="510" y="273">24</text>
<line class="grid" x1="530" x2="530" y1="30" y2="270" />
<line class="grid" x1="550" x2="550" y1="30" y2="270" />
<line class="grid" x1="570" x2="570" y1="30" y2="270" />
<line class="major-grid" x1="590" x2="590" y1="30" y2="270" />
<text class="x-label" x="590" y="273">28</text>
<line class="grid" x1="610" x2="610" y1="30" y2="270" />
<line class="grid" x1="630" x2="630" y1="30" y2="270" />
<line class="major-grid" x1="30" x2="630" y1="270" y2="270" />
<text class="y-label" x="25" y="270">0</text>
<line class="grid" x1="30" x2="630" y1="250" y2="250" />
<line class="grid" x1="30" x2="630" y1="230" y2="230" />
<line class="grid" x1="30" x2="630" y1="210" y2="210" />
<line class="major-grid" x1="30" x2="630" y1="190" y2="190" />
<text class="y-label" x="25" y="190">4</text>
<line class="grid" x1="30" x2="630" y1="170" y2="170" />
<line class="grid" x1="30" x2="630" y1="150" y2="150" />
<line class="grid" x1="30" x2="630" y1="130" y2="130" />
<line class="major-grid" x1="30" x2="630" y1="110" y2="110" />
<text class="y-label" x="25" y="110">8</text>
<line class="grid" x1="30" x2="630" y1="90" y2="90" />
<line class="grid" x1="30" x2="630" y1="70" y2="70" />
<line class="grid" x1="30" x2="630" y1="50" y2="50" />
<line class="major-grid" x1="30" x2="630" y1="30" y2="30" />
<text class="y-label" x="25" y="30">12</text>
<circle cx="30" cy="270" r="2"/>
<circle cx="30" cy="250" r="2"/>
<circle cx="30" cy="230" r="2"/>
<circle cx="30" cy="210" r="2"/>
<circle cx="30" cy="190" r="2"/>
<circle cx="30" cy="170" r="2"/>
<circle cx="30" cy="150" r="2"/>
<circle cx="30" cy="130" r="2"/>
<circle cx="30" cy="110" r="2"/>
<circle cx="30" cy="90" r="2"/>
<circle cx="30" cy="70" r="2"/>
<circle cx="30" cy="50" r="2"/>
<circle cx="30" cy="30" r="2"/>
<circle cx="50" cy="250" r="2"/>
<circle cx="70" cy="230" r="2"/>
<circle cx="90" cy="250" r="2"/>
<circle cx="90" cy="230" r="2"/>
<circle cx="90" cy="210" r="2"/>
<circle cx="150" cy="230" r="2"/>
<circle cx="170" cy="250" r="2"/>
<circle cx="170" cy="230" r="2"/>
<circle cx="170" cy="210" r="2"/>
<circle cx="170" cy="190" r="2"/>
<circle cx="190" cy="230" r="2"/>
<circle cx="190" cy="210" r="2"/>
<circle cx="210" cy="210" r="2"/>
<circle cx="210" cy="190" r="2"/>
<circle cx="210" cy="170" r="2"/>
<circle cx="230" cy="150" r="2"/>
<circle cx="250" cy="170" r="2"/>
<circle cx="250" cy="150" r="2"/>
<circle cx="250" cy="130" r="2"/>
<circle cx="310" cy="230" r="2"/>
<circle cx="310" cy="190" r="2"/>
<circle cx="310" cy="170" r="2"/>
<circle cx="310" cy="150" r="2"/>
<circle cx="330" cy="230" r="2"/>
<circle cx="330" cy="210" r="2"/>
<circle cx="330" cy="190" r="2"/>
<circle cx="327" cy="170" r="2"/>
<circle cx="333" cy="170" r="2"/>
<circle cx="330" cy="150" r="2"/>
<circle cx="330" cy="130" r="2"/>
<circle cx="330" cy="110" r="2"/>
<circle cx="350" cy="230" r="2"/>
<circle cx="350" cy="130" r="2"/>
<circle cx="370" cy="210" r="2"/>
<circle cx="370" cy="170" r="2"/>
<circle cx="370" cy="110" r="2"/>
<circle cx="370" cy="90" r="2"/>
<circle cx="390" cy="230" r="2"/>
<circle cx="390" cy="210" r="2"/>
<circle cx="390" cy="190" r="2"/>
<circle cx="390" cy="70" r="2"/>
<circle cx="410" cy="210" r="2"/>
<circle cx="410" cy="90" r="2"/>
<circle cx="410" cy="70" r="2"/>
<circle cx="410" cy="50" r="2"/>
<circle cx="430" cy="190" r="2"/>
<circle cx="430" cy="170" r="2"/>
<circle cx="430" cy="150" r="2"/>
<circle cx="450" cy="210" r="2"/>
<circle cx="450" cy="170" r="2"/>
<circle cx="470" cy="190" r="2"/>
<circle cx="470" cy="110" r="2"/>
<circle cx="490" cy="190" r="2"/>
<circle cx="490" cy="170" r="2"/>
<circle cx="490" cy="150" r="2"/>
<circle cx="490" cy="130" r="2"/>
<circle cx="510" cy="170" r="2"/>
<circle cx="30" cy="270" r="2"/>
<circle cx="30" cy="250" r="2"/>
<line class="structline" x1="30" x2="30" y1="270" y2="250" />
<circle cx="30" cy="230" r="2"/>
<line class="structline" x1="30" x2="30" y1="250" y2="230" />
<circle cx="30" cy="210" r="2"/>
<line class="structline" x1="30" x2="30" y1="230" y2="210" />
<circle cx="30" cy="190" r="2"/>
<line class="structline" x1="30" x2="30" y1="210" y2="190" />
<circle cx="30" cy="170" r="2"/>
<line class="structline" x1="30" x2="30" y1="190" y2="170" />
<circle cx="30" cy="150" r="2"/>
<line class="structline" x1="30" x2="30" y1="170" y2="150" />
<circle cx="30" cy="130" r="2"/>
<line class="structline" x1="30" x2="30" y1="150" y2="130" />
<circle cx="30" cy="110" r="2"/>
<line class="structline" x1="30" x2="30" y1="130" y2="110" />
<circle cx="30" cy="90" r="2"/>
<line class="structline" x1="30" x2="30" y1="110" y2="90" />
<circle cx="30" cy="70" r="2"/>
<line class="structline" x1="30" x2="30" y1="90" y2="70" />
<circle cx="30" cy="50" r="2"/>
<line class="structline" x1="30" x2="30" y1="70" y2="50" />
<circle cx="30" cy="30" r="2"/>
<line class="structline" x1="30" x2="30" y1="50" y2="30" />
<circle cx="50" cy="250" r="2"/>
<line class="structline" x1="30" x2="50" y1="270" y2="250" />
<circle cx="70" cy="230" r="2"/>
<line class="structline" x1="50" x2="70" y1="250" y2="230" />
<circle cx="90" cy="250" r="2"/>
<line class="structline" x1="30" x2="90" y1="270" y2="250" />
<circle cx="90" cy="230" r="2"/>
<line class="structline" x1="90" x2="90" y1="250" y2="230" />
<line class="structline" x1="30" x2="90" y1="250" y2="230" />
<circle cx="90" cy="210" r="2"/>
<line class="structline" x1="90" x2="90" y1="230" y2="210" />
<line class="structline" x1="70" x2="90" y1="230" y2="210" />
<line class="structline" x1="30" x2="90" y1="230" y2="210" />
<circle cx="150" cy="230" r="2"/>
<line class="structline" x1="90" x2="150" y1="250" y2="230" />
<circle cx="170" cy="250" r="2"/>
<circle cx="170" cy="230" r="2"/>
<line class="structline" x1="170" x2="170" y1="250" y2="230" />
<circle cx="170" cy="210" r="2"/>
<line class="structline" x1="170" x2="170" y1="230" y2="210" />
<circle cx="170" cy="190" r="2"/>
<line class="structline" x1="170" x2="170" y1="210" y2="190" />
<circle cx="190" cy="230" r="2"/>
<line class="structline" x1="170" x2="190" y1="250" y2="230" />
<circle cx="190" cy="210" r="2"/>
<circle cx="210" cy="210" r="2"/>
<line class="structline" x1="190" x2="210" y1="230" y2="210" />
<line class="structline" x1="150" x2="210" y1="230" y2="210" />
<circle cx="210" cy="190" r="2"/>
<line class="structline" x1="190" x2="210" y1="210" y2="190" />
<circle cx="210" cy="170" r="2"/>
<circle cx="230" cy="150" r="2"/>
<line class="structline" x1="210" x2="230" y1="170" y2="150" />
<circle cx="250" cy="170" r="2"/>
<circle cx="250" cy="150" r="2"/>
<line class="structline" x1="250" x2="250" y1="170" y2="150" />
<circle cx="250" cy="130" r="2"/>
<line class="structline" x1="250" x2="250" y1="150" y2="130" />
<line class="structline" x1="230" x2="250" y1="150" y2="130" />
<circle cx="310" cy="230" r="2"/>
<circle cx="310" cy="190" r="2"/>
<circle cx="310" cy="170" r="2"/>
<line class="structline" x1="310" x2="310" y1="190" y2="170" />
<circle cx="310" cy="150" r="2"/>
<line class="structline" x1="310" x2="310" y1="170" y2="150" />
<line class="structline" x1="250" x2="310" y1="170" y2="150" />
<circle cx="330" cy="230" r="2"/>
<circle cx="330" cy="210" r="2"/>
<line class="structline" x1="330" x2="330" y1="230" y2="210" />
<circle cx="330" cy="190" r="2"/>
<line class="structline" x1="330" x2="330" y1="210" y2="190" />
<circle cx="327" cy="170" r="2"/>
<circle cx="333" cy="170" r="2"/>
<line class="structline" x1="330" x2="327" y1="190" y2="170" />
<line class="structline" x1="310" x2="333" y1="190" y2="170" />
<circle cx="330" cy="150" r="2"/>
<line class="structline" x1="327" x2="330" y1="170" y2="150" />
<circle cx="330" cy="130" r="2"/>
<line class="structline" x1="330" x2="330" y1="150" y2="130" />
<circle cx="330" cy="110" r="2"/>
<line class="structline" x1="330" x2="330" y1="130" y2="110" />
<circle cx="350" cy="230" r="2"/>
<circle cx="350" cy="130" r="2"/>
<circle cx="370" cy="210" r="2"/>
<line class="structline" x1="350" x2="370" y1="230" y2="210" />
<circle cx="370" cy="170" r="2"/>
<line class="structline" x1="310" x2="370" y1="190" y2="170" />
<circle cx="370" cy="110" r="2"/>
<line class="structline" x1="350" x2="370" y1="130" y2="110" />
<circle cx="370" cy="90" r="2"/>
<circle cx="390" cy="230" r="2"/>
<circle cx="390" cy="210" r="2"/>
<line class="structline" x1="390" x2="390" y1="230" y2="210" />
<line class="structline" x1="330" x2="390" y1="230" y2="210" />
<circle cx="390" cy="190" r="2"/>
<line class="structline" x1="390" x2="390" y1="210" y2="190" />
<line class="structline" x1="370" x2="390" y1="210" y2="190" />
<line class="structline" x1="330" x2="390" y1="210" y2="190" />
<circle cx="390" cy="70" r="2"/>
<line class="structline" x1="370" x2="390" y1="90" y2="70" />
<circle cx="410" cy="210" r="2"/>
<circle cx="410" cy="90" r="2"/>
<circle cx="410" cy="70" r="2"/>
<line class="structline" x1="410" x2="410" y1="90" y2="70" />
<circle cx="410" cy="50" r="2"/>
<line class="structline" x1="410" x2="410" y1="70" y2="50" />
<line class="structline" x1="390" x2="410" y1="70" y2="50" />
<circle cx="430" cy="190" r="2"/>
<circle cx="430" cy="170" r="2"/>
<line class="structline" x1="430" x2="430" y1="190" y2="170" />
<circle cx="430" cy="150" r="2"/>
<line class="structline" x1="430" x2="430" y1="170" y2="150" />
<line class="structline" x1="370" x2="430" y1="170" y2="150" />
<circle cx="450" cy="210" r="2"/>
<line class="structline" x1="390" x2="450" y1="230" y2="210" />
<circle cx="450" cy="170" r="2"/>
<line class="structline" x1="430" x2="450" y1="190" y2="170" />
<circle cx="470" cy="190" r="2"/>
<line class="structline" x1="410" x2="470" y1="210" y2="190" />
<circle cx="470" cy="110" r="2"/>
<circle cx="490" cy="190" r="2"/>
<circle cx="490" cy="170" r="2"/>
<line class="structline" x1="430" x2="490" y1="190" y2="170" />
<circle cx="490" cy="150" r="2"/>
<line class="structline" x1="490" x2="490" y1="170" y2="150" />
<line class="structline" x1="430" x2="490" y1="170" y2="150" />
<circle cx="490" cy="130" r="2"/>
<circle cx="510" cy="170" r="2"/>
<line class="structline" x1="490" x2="510" y1="190" y2="170" />
</svg>
